<?xml version="1.0" encoding="UTF-8" standalone="no"?>
<!-- Created with Inkscape (http://www.inkscape.org/) -->

<svg
   width="79.559196mm"
   height="100.85007mm"
   viewBox="0 0 300.69618 381.16561"
   version="1.1"
   id="svg1"
   inkscape:version="1.4.4 (dcaf3e7d9e, 2026-05-05)"
   sodipodi:docname="paralax.svg"
   inkscape:export-filename="paralax.pdf"
   inkscape:export-xdpi="96"
   inkscape:export-ydpi="96"
   xmlns:inkscape="http://www.inkscape.org/namespaces/inkscape"
   xmlns:sodipodi="http://sodipodi.sourceforge.net/DTD/sodipodi-0.dtd"
   xmlns="http://www.w3.org/2000/svg"
   xmlns:svg="http://www.w3.org/2000/svg">
  <sodipodi:namedview
     id="namedview1"
     pagecolor="#ffffff"
     bordercolor="#000000"
     borderopacity="0.25"
     inkscape:showpageshadow="2"
     inkscape:pageopacity="0.0"
     inkscape:pagecheckerboard="0"
     inkscape:deskcolor="#d1d1d1"
     inkscape:document-units="mm"
     inkscape:zoom="2.0283687"
     inkscape:cx="58.42133"
     inkscape:cy="129.41434"
     inkscape:window-width="1920"
     inkscape:window-height="1014"
     inkscape:window-x="0"
     inkscape:window-y="0"
     inkscape:window-maximized="1"
     inkscape:current-layer="layer1" />
  <defs
     id="defs1">
    <marker
       style="overflow:visible"
       id="DartArrow"
       refX="0"
       refY="0"
       orient="auto-start-reverse"
       inkscape:stockid="Dart arrow"
       markerWidth="1"
       markerHeight="1"
       viewBox="0 0 1 1"
       inkscape:isstock="true"
       inkscape:collect="always"
       preserveAspectRatio="xMidYMid">
      <path
         style="fill:context-stroke;fill-rule:evenodd;stroke:none"
         d="M 0,0 5,-5 -12.5,0 5,5 Z"
         transform="scale(-0.5)"
         id="path16" />
    </marker>
    <marker
       style="overflow:visible"
       id="ConcaveTriangle"
       refX="0"
       refY="0"
       orient="auto-start-reverse"
       inkscape:stockid="Concave triangle arrow"
       markerWidth="1"
       markerHeight="1"
       viewBox="0 0 1 1"
       inkscape:isstock="true"
       inkscape:collect="always"
       preserveAspectRatio="xMidYMid">
      <path
         transform="scale(0.7)"
         d="M -2,-4 9,0 -2,4 c 2,-2.33 2,-5.66 0,-8 z"
         style="fill:context-stroke;fill-rule:evenodd;stroke:none"
         id="path10" />
    </marker>
  </defs>
  <g
     inkscape:label="Layer 1"
     inkscape:groupmode="layer"
     id="layer1"
     transform="translate(-112.43006,-20.183753)">
    <g
       id="g11">
      <path
         sodipodi:type="star"
         style="fill:#ffcc00;stroke:#000000;stroke-width:1.56102;stroke-dasharray:none"
         id="path1"
         inkscape:flatsided="false"
         sodipodi:sides="5"
         sodipodi:cx="146.91609"
         sodipodi:cy="166.63637"
         sodipodi:r1="16.999809"
         sodipodi:r2="8.4999046"
         sodipodi:arg1="-0.26179939"
         sodipodi:arg2="0.36651914"
         inkscape:rounded="0"
         inkscape:randomized="0"
         d="m 163.33665,162.23649 -8.48521,7.44597 1.32341,11.21115 -9.70361,-5.76899 -10.25347,4.72308 2.48804,-11.01139 -7.66041,-8.29213 11.24131,-1.03643 5.51908,-9.84789 4.45947,10.37084 z"
         inkscape:transform-center-x="-0.2749328"
         inkscape:transform-center-y="-1.3596359"
         transform="translate(107.47553,174.03148)" />
      <path
         sodipodi:type="star"
         style="fill:#ffcc00;stroke:#000000;stroke-width:1.56102;stroke-dasharray:none"
         id="path1-3"
         inkscape:flatsided="false"
         sodipodi:sides="5"
         sodipodi:cx="146.91609"
         sodipodi:cy="166.63637"
         sodipodi:r1="16.999809"
         sodipodi:r2="8.4999046"
         sodipodi:arg1="-0.26179939"
         sodipodi:arg2="0.36651914"
         inkscape:rounded="0"
         inkscape:randomized="0"
         d="m 163.33665,162.23649 -8.48521,7.44597 1.32341,11.21115 -9.70361,-5.76899 -10.25347,4.72308 2.48804,-11.01139 -7.66041,-8.29213 11.24131,-1.03643 5.51908,-9.84789 4.45947,10.37084 z"
         inkscape:transform-center-x="0.2648672"
         inkscape:transform-center-y="1.3693687"
         transform="rotate(-36.109922,467.5646,88.495443)" />
    </g>
    <g
       id="g11-2"
       transform="translate(2.0118907,-166.40394)"
       style="fill:#ff0000">
      <path
         sodipodi:type="star"
         style="fill:#ff0000;stroke:#000000;stroke-width:1.56102;stroke-dasharray:none"
         id="path1-6"
         inkscape:flatsided="false"
         sodipodi:sides="5"
         sodipodi:cx="146.91609"
         sodipodi:cy="166.63637"
         sodipodi:r1="16.999809"
         sodipodi:r2="8.4999046"
         sodipodi:arg1="-0.26179939"
         sodipodi:arg2="0.36651914"
         inkscape:rounded="0"
         inkscape:randomized="0"
         d="m 163.33665,162.23649 -8.48521,7.44597 1.32341,11.21115 -9.70361,-5.76899 -10.25347,4.72308 2.48804,-11.01139 -7.66041,-8.29213 11.24131,-1.03643 5.51908,-9.84789 4.45947,10.37084 z"
         inkscape:transform-center-x="-0.2749328"
         inkscape:transform-center-y="-1.3596359"
         transform="translate(107.47553,174.03148)" />
      <path
         sodipodi:type="star"
         style="fill:#ff0000;stroke:#000000;stroke-width:1.56102;stroke-dasharray:none"
         id="path1-3-1"
         inkscape:flatsided="false"
         sodipodi:sides="5"
         sodipodi:cx="146.91609"
         sodipodi:cy="166.63637"
         sodipodi:r1="16.999809"
         sodipodi:r2="8.4999046"
         sodipodi:arg1="-0.26179939"
         sodipodi:arg2="0.36651914"
         inkscape:rounded="0"
         inkscape:randomized="0"
         d="m 163.33665,162.23649 -8.48521,7.44597 1.32341,11.21115 -9.70361,-5.76899 -10.25347,4.72308 2.48804,-11.01139 -7.66041,-8.29213 11.24131,-1.03643 5.51908,-9.84789 4.45947,10.37084 z"
         inkscape:transform-center-x="0.2648672"
         inkscape:transform-center-y="1.3693687"
         transform="rotate(-36.109922,467.5646,88.495443)" />
    </g>
    <g
       id="g11-2-4"
       transform="translate(-74.023079,-277.7464)"
       style="fill:#ffaaaa;stroke-width:1.00157481;stroke-dasharray:1.00157475,1.00157475;stroke:#000000;stroke-dashoffset:0">
      <path
         sodipodi:type="star"
         style="fill:#ffaaaa;stroke:#000000;stroke-width:1.00157481;stroke-dasharray:1.00157475,1.00157475;stroke-dashoffset:0"
         id="path1-6-5"
         inkscape:flatsided="false"
         sodipodi:sides="5"
         sodipodi:cx="146.91609"
         sodipodi:cy="166.63637"
         sodipodi:r1="16.999809"
         sodipodi:r2="8.4999046"
         sodipodi:arg1="-0.26179939"
         sodipodi:arg2="0.36651914"
         inkscape:rounded="0"
         inkscape:randomized="0"
         d="m 163.33665,162.23649 -8.48521,7.44597 1.32341,11.21115 -9.70361,-5.76899 -10.25347,4.72308 2.48804,-11.01139 -7.66041,-8.29213 11.24131,-1.03643 5.51908,-9.84789 4.45947,10.37084 z"
         inkscape:transform-center-x="-0.2749328"
         inkscape:transform-center-y="-1.3596359"
         transform="translate(107.47553,174.03148)" />
      <path
         sodipodi:type="star"
         style="fill:#ffaaaa;stroke:#000000;stroke-width:1.00157481;stroke-dasharray:1.00157475,1.00157475;stroke-dashoffset:0"
         id="path1-3-1-2"
         inkscape:flatsided="false"
         sodipodi:sides="5"
         sodipodi:cx="146.91609"
         sodipodi:cy="166.63637"
         sodipodi:r1="16.999809"
         sodipodi:r2="8.4999046"
         sodipodi:arg1="-0.26179939"
         sodipodi:arg2="0.36651914"
         inkscape:rounded="0"
         inkscape:randomized="0"
         d="m 163.33665,162.23649 -8.48521,7.44597 1.32341,11.21115 -9.70361,-5.76899 -10.25347,4.72308 2.48804,-11.01139 -7.66041,-8.29213 11.24131,-1.03643 5.51908,-9.84789 4.45947,10.37084 z"
         inkscape:transform-center-x="0.2648672"
         inkscape:transform-center-y="1.3693687"
         transform="rotate(-36.109922,467.5646,88.495443)" />
    </g>
    <ellipse
       style="fill:none;stroke:#000000;stroke-width:1.56102;stroke-dasharray:1.56102, 1.56102;stroke-dashoffset:0"
       id="path2"
       cx="254.3916"
       cy="342.14685"
       rx="115.85664"
       ry="20.706295" />
    <g
       id="g8"
       transform="matrix(0.70920743,0,0,0.70920743,94.561505,136.96966)">
      <circle
         style="fill:#000080;stroke:#000000;stroke-width:1.56102;stroke-dasharray:none;stroke-dashoffset:0"
         id="path3"
         cx="387.50351"
         cy="287.4231"
         r="24.650351" />
      <path
         style="fill:#008000;stroke:none;stroke-width:1.56102;stroke-dasharray:none;stroke-dashoffset:0"
         d="m 365.16752,292.13402 6.79786,1.04582 2.26596,9.76104 8.1923,3.48609 8.018,-0.52291 1.39443,-8.018 -5.75204,-6.79787 -11.32978,-5.57774 -7.49508,2.26596 z"
         id="path6" />
      <path
         style="fill:#008000;stroke:none;stroke-width:1.56102;stroke-dasharray:none;stroke-dashoffset:0"
         d="m 373.01121,272.08902 -4.88052,5.75204 1.74304,5.92635 5.57774,-2.78887 6.79787,-12.027 c 0,0 -4.35761,-0.87152 -5.05483,-0.1743 -0.69721,0.69722 -4.1833,3.31178 -4.1833,3.31178 z"
         id="path7" />
      <path
         style="fill:#008000;stroke:none;stroke-width:1.56102;stroke-dasharray:none;stroke-dashoffset:0"
         d="m 395.84507,280.10702 -5.22913,2.78887 3.31179,1.56874 3.48608,-0.17431 -0.52291,5.22913 c 0,0 1.04583,4.009 2.09165,4.009 1.04583,0 5.92635,-3.83469 5.75204,-4.53191 -0.1743,-0.69722 -2.96317,-7.14648 -2.96317,-7.14648 l 6.10065,-4.35761 1.04583,-0.69721 -6.62357,-7.49509 z"
         id="path8" />
    </g>
    <g
       id="g8-1"
       transform="matrix(0.70920743,0,0,0.70920743,-136.73612,138.73147)">
      <circle
         style="fill:#000080;stroke:#000000;stroke-width:1.56102;stroke-dasharray:none;stroke-dashoffset:0"
         id="path3-2"
         cx="387.50351"
         cy="287.4231"
         r="24.650351" />
      <path
         style="fill:#008000;stroke:none;stroke-width:1.56102;stroke-dasharray:none;stroke-dashoffset:0"
         d="m 365.16752,292.13402 6.79786,1.04582 2.26596,9.76104 8.1923,3.48609 8.018,-0.52291 1.39443,-8.018 -5.75204,-6.79787 -11.32978,-5.57774 -7.49508,2.26596 z"
         id="path6-7" />
      <path
         style="fill:#008000;stroke:none;stroke-width:1.56102;stroke-dasharray:none;stroke-dashoffset:0"
         d="m 373.01121,272.08902 -4.88052,5.75204 1.74304,5.92635 5.57774,-2.78887 6.79787,-12.027 c 0,0 -4.35761,-0.87152 -5.05483,-0.1743 -0.69721,0.69722 -4.1833,3.31178 -4.1833,3.31178 z"
         id="path7-0" />
      <path
         style="fill:#008000;stroke:none;stroke-width:1.56102;stroke-dasharray:none;stroke-dashoffset:0"
         d="m 395.84507,280.10702 -5.22913,2.78887 3.31179,1.56874 3.48608,-0.17431 -0.52291,5.22913 c 0,0 1.04583,4.009 2.09165,4.009 1.04583,0 5.92635,-3.83469 5.75204,-4.53191 -0.1743,-0.69722 -2.96317,-7.14648 -2.96317,-7.14648 l 6.10065,-4.35761 1.04583,-0.69721 -6.62357,-7.49509 z"
         id="path8-9" />
    </g>
    <path
       style="fill:none;stroke:#000000;stroke-width:1.56102;stroke-dasharray:none;stroke-dashoffset:0;marker-end:url(#ConcaveTriangle)"
       d="m 149.90169,363.59878 c 47.06216,26.58652 141.5351,32.3224 199.40413,0.69722"
       id="path9"
       sodipodi:nodetypes="cc" />
    <text
       xml:space="preserve"
       style="font-size:13.3333px;font-family:'Latin Modern Mono Light';-inkscape-font-specification:'Latin Modern Mono Light, ';writing-mode:lr-tb;direction:ltr;fill:#000000;stroke:none;stroke-width:1.56102;stroke-dasharray:none;stroke-dashoffset:0"
       x="226.9442"
       y="400.2027"
       id="text10"><tspan
         sodipodi:role="line"
         id="tspan10"
         x="226.9442"
         y="400.2027">1/2 roku</tspan></text>
    <text
       xml:space="preserve"
       style="font-size:13.3333px;font-family:'Latin Modern Mono Light';-inkscape-font-specification:'Latin Modern Mono Light, ';writing-mode:lr-tb;direction:ltr;fill:#000000;stroke:none;stroke-width:1.56102;stroke-dasharray:none;stroke-dashoffset:0"
       x="276.33044"
       y="344.36542"
       id="text11"><tspan
         sodipodi:role="line"
         id="tspan11"
         x="276.33044"
         y="344.36542">slunce</tspan></text>
    <text
       xml:space="preserve"
       style="font-size:13.3333px;font-family:'Latin Modern Mono Light';-inkscape-font-specification:'Latin Modern Mono Light, ';writing-mode:lr-tb;direction:ltr;fill:#000000;stroke:none;stroke-width:1.56102;stroke-dasharray:none;stroke-dashoffset:0"
       x="291.14401"
       y="179.13264"
       id="text11-0"><tspan
         sodipodi:role="line"
         id="tspan11-2"
         x="291.14401"
         y="179.13264">neznámá hvězda</tspan></text>
    <g
       id="g11-2-2"
       transform="matrix(0.61776003,0,0,0.61776003,-33.641237,-151.32357)"
       style="fill:#008000">
      <path
         sodipodi:type="star"
         style="fill:#008000;stroke:#000000;stroke-width:1.56102;stroke-dasharray:none"
         id="path1-6-2"
         inkscape:flatsided="false"
         sodipodi:sides="5"
         sodipodi:cx="146.91609"
         sodipodi:cy="166.63637"
         sodipodi:r1="16.999809"
         sodipodi:r2="8.4999046"
         sodipodi:arg1="-0.26179939"
         sodipodi:arg2="0.36651914"
         inkscape:rounded="0"
         inkscape:randomized="0"
         d="m 163.33665,162.23649 -8.48521,7.44597 1.32341,11.21115 -9.70361,-5.76899 -10.25347,4.72308 2.48804,-11.01139 -7.66041,-8.29213 11.24131,-1.03643 5.51908,-9.84789 4.45947,10.37084 z"
         inkscape:transform-center-x="-0.2749328"
         inkscape:transform-center-y="-1.3596359"
         transform="translate(107.47553,174.03148)" />
      <path
         sodipodi:type="star"
         style="fill:#008000;stroke:#000000;stroke-width:1.56102;stroke-dasharray:none"
         id="path1-3-1-8"
         inkscape:flatsided="false"
         sodipodi:sides="5"
         sodipodi:cx="146.91609"
         sodipodi:cy="166.63637"
         sodipodi:r1="16.999809"
         sodipodi:r2="8.4999046"
         sodipodi:arg1="-0.26179939"
         sodipodi:arg2="0.36651914"
         inkscape:rounded="0"
         inkscape:randomized="0"
         d="m 163.33665,162.23649 -8.48521,7.44597 1.32341,11.21115 -9.70361,-5.76899 -10.25347,4.72308 2.48804,-11.01139 -7.66041,-8.29213 11.24131,-1.03643 5.51908,-9.84789 4.45947,10.37084 z"
         inkscape:transform-center-x="0.2648672"
         inkscape:transform-center-y="1.3693687"
         transform="rotate(-36.109922,467.5646,88.495443)" />
    </g>
    <g
       id="g11-2-2-9"
       transform="matrix(0.61776003,0,0,0.61776003,58.604727,-148.72731)"
       style="fill:#008080">
      <path
         sodipodi:type="star"
         style="fill:#008080;stroke:#000000;stroke-width:1.56102;stroke-dasharray:none"
         id="path1-6-2-3"
         inkscape:flatsided="false"
         sodipodi:sides="5"
         sodipodi:cx="146.91609"
         sodipodi:cy="166.63637"
         sodipodi:r1="16.999809"
         sodipodi:r2="8.4999046"
         sodipodi:arg1="-0.26179939"
         sodipodi:arg2="0.36651914"
         inkscape:rounded="0"
         inkscape:randomized="0"
         d="m 163.33665,162.23649 -8.48521,7.44597 1.32341,11.21115 -9.70361,-5.76899 -10.25347,4.72308 2.48804,-11.01139 -7.66041,-8.29213 11.24131,-1.03643 5.51908,-9.84789 4.45947,10.37084 z"
         inkscape:transform-center-x="-0.2749328"
         inkscape:transform-center-y="-1.3596359"
         transform="translate(107.47553,174.03148)" />
      <path
         sodipodi:type="star"
         style="fill:#008080;stroke:#000000;stroke-width:1.56102;stroke-dasharray:none"
         id="path1-3-1-8-1"
         inkscape:flatsided="false"
         sodipodi:sides="5"
         sodipodi:cx="146.91609"
         sodipodi:cy="166.63637"
         sodipodi:r1="16.999809"
         sodipodi:r2="8.4999046"
         sodipodi:arg1="-0.26179939"
         sodipodi:arg2="0.36651914"
         inkscape:rounded="0"
         inkscape:randomized="0"
         d="m 163.33665,162.23649 -8.48521,7.44597 1.32341,11.21115 -9.70361,-5.76899 -10.25347,4.72308 2.48804,-11.01139 -7.66041,-8.29213 11.24131,-1.03643 5.51908,-9.84789 4.45947,10.37084 z"
         inkscape:transform-center-x="0.2648672"
         inkscape:transform-center-y="1.3693687"
         transform="rotate(-36.109922,467.5646,88.495443)" />
    </g>
    <g
       id="g11-2-2-4"
       transform="matrix(0.61776003,0,0,0.61776003,221.48598,-147.50407)"
       style="fill:#00ffff">
      <path
         sodipodi:type="star"
         style="fill:#00ffff;stroke:#000000;stroke-width:1.56102;stroke-dasharray:none"
         id="path1-6-2-5"
         inkscape:flatsided="false"
         sodipodi:sides="5"
         sodipodi:cx="146.91609"
         sodipodi:cy="166.63637"
         sodipodi:r1="16.999809"
         sodipodi:r2="8.4999046"
         sodipodi:arg1="-0.26179939"
         sodipodi:arg2="0.36651914"
         inkscape:rounded="0"
         inkscape:randomized="0"
         d="m 163.33665,162.23649 -8.48521,7.44597 1.32341,11.21115 -9.70361,-5.76899 -10.25347,4.72308 2.48804,-11.01139 -7.66041,-8.29213 11.24131,-1.03643 5.51908,-9.84789 4.45947,10.37084 z"
         inkscape:transform-center-x="-0.2749328"
         inkscape:transform-center-y="-1.3596359"
         transform="translate(107.47553,174.03148)" />
      <path
         sodipodi:type="star"
         style="fill:#00ffff;stroke:#000000;stroke-width:1.56102;stroke-dasharray:none"
         id="path1-3-1-8-0"
         inkscape:flatsided="false"
         sodipodi:sides="5"
         sodipodi:cx="146.91609"
         sodipodi:cy="166.63637"
         sodipodi:r1="16.999809"
         sodipodi:r2="8.4999046"
         sodipodi:arg1="-0.26179939"
         sodipodi:arg2="0.36651914"
         inkscape:rounded="0"
         inkscape:randomized="0"
         d="m 163.33665,162.23649 -8.48521,7.44597 1.32341,11.21115 -9.70361,-5.76899 -10.25347,4.72308 2.48804,-11.01139 -7.66041,-8.29213 11.24131,-1.03643 5.51908,-9.84789 4.45947,10.37084 z"
         inkscape:transform-center-x="0.2648672"
         inkscape:transform-center-y="1.3693687"
         transform="rotate(-36.109922,467.5646,88.495443)" />
    </g>
    <g
       id="g11-2-2-6"
       transform="matrix(0.61776003,0,0,0.61776003,150.19094,-152.0434)"
       style="fill:#0000ff">
      <path
         sodipodi:type="star"
         style="fill:#0000ff;stroke:#000000;stroke-width:1.56102;stroke-dasharray:none"
         id="path1-6-2-32"
         inkscape:flatsided="false"
         sodipodi:sides="5"
         sodipodi:cx="146.91609"
         sodipodi:cy="166.63637"
         sodipodi:r1="16.999809"
         sodipodi:r2="8.4999046"
         sodipodi:arg1="-0.26179939"
         sodipodi:arg2="0.36651914"
         inkscape:rounded="0"
         inkscape:randomized="0"
         d="m 163.33665,162.23649 -8.48521,7.44597 1.32341,11.21115 -9.70361,-5.76899 -10.25347,4.72308 2.48804,-11.01139 -7.66041,-8.29213 11.24131,-1.03643 5.51908,-9.84789 4.45947,10.37084 z"
         inkscape:transform-center-x="-0.2749328"
         inkscape:transform-center-y="-1.3596359"
         transform="translate(107.47553,174.03148)" />
      <path
         sodipodi:type="star"
         style="fill:#0000ff;stroke:#000000;stroke-width:1.56102;stroke-dasharray:none"
         id="path1-3-1-8-06"
         inkscape:flatsided="false"
         sodipodi:sides="5"
         sodipodi:cx="146.91609"
         sodipodi:cy="166.63637"
         sodipodi:r1="16.999809"
         sodipodi:r2="8.4999046"
         sodipodi:arg1="-0.26179939"
         sodipodi:arg2="0.36651914"
         inkscape:rounded="0"
         inkscape:randomized="0"
         d="m 163.33665,162.23649 -8.48521,7.44597 1.32341,11.21115 -9.70361,-5.76899 -10.25347,4.72308 2.48804,-11.01139 -7.66041,-8.29213 11.24131,-1.03643 5.51908,-9.84789 4.45947,10.37084 z"
         inkscape:transform-center-x="0.2648672"
         inkscape:transform-center-y="1.3693687"
         transform="rotate(-36.109922,467.5646,88.495443)" />
    </g>
    <g
       id="g11-2-2-7"
       transform="matrix(0.61776003,0,0,0.61776003,104.52117,-150.61843)"
       style="fill:#ff00ff">
      <path
         sodipodi:type="star"
         style="fill:#ff00ff;stroke:#000000;stroke-width:1.56102;stroke-dasharray:none"
         id="path1-6-2-6"
         inkscape:flatsided="false"
         sodipodi:sides="5"
         sodipodi:cx="146.91609"
         sodipodi:cy="166.63637"
         sodipodi:r1="16.999809"
         sodipodi:r2="8.4999046"
         sodipodi:arg1="-0.26179939"
         sodipodi:arg2="0.36651914"
         inkscape:rounded="0"
         inkscape:randomized="0"
         d="m 163.33665,162.23649 -8.48521,7.44597 1.32341,11.21115 -9.70361,-5.76899 -10.25347,4.72308 2.48804,-11.01139 -7.66041,-8.29213 11.24131,-1.03643 5.51908,-9.84789 4.45947,10.37084 z"
         inkscape:transform-center-x="-0.2749328"
         inkscape:transform-center-y="-1.3596359"
         transform="translate(107.47553,174.03148)" />
      <path
         sodipodi:type="star"
         style="fill:#ff00ff;stroke:#000000;stroke-width:1.56102;stroke-dasharray:none"
         id="path1-3-1-8-5"
         inkscape:flatsided="false"
         sodipodi:sides="5"
         sodipodi:cx="146.91609"
         sodipodi:cy="166.63637"
         sodipodi:r1="16.999809"
         sodipodi:r2="8.4999046"
         sodipodi:arg1="-0.26179939"
         sodipodi:arg2="0.36651914"
         inkscape:rounded="0"
         inkscape:randomized="0"
         d="m 163.33665,162.23649 -8.48521,7.44597 1.32341,11.21115 -9.70361,-5.76899 -10.25347,4.72308 2.48804,-11.01139 -7.66041,-8.29213 11.24131,-1.03643 5.51908,-9.84789 4.45947,10.37084 z"
         inkscape:transform-center-x="0.2648672"
         inkscape:transform-center-y="1.3693687"
         transform="rotate(-36.109922,467.5646,88.495443)" />
    </g>
    <text
       xml:space="preserve"
       style="font-size:13.3333px;font-family:'Latin Modern Mono Light';-inkscape-font-specification:'Latin Modern Mono Light, ';writing-mode:lr-tb;direction:ltr;fill:#000000;stroke:none;stroke-width:1.56102;stroke-dasharray:none;stroke-dashoffset:0"
       x="208.49365"
       y="28.477062"
       id="text11-0-9"><tspan
         sodipodi:role="line"
         id="tspan11-2-7"
         x="208.49365"
         y="28.477062">vzdálené hvězdy</tspan></text>
    <path
       style="fill:none;stroke:#000000;stroke-width:1.9389;stroke-dasharray:1.9389, 1.9389;stroke-dashoffset:0"
       d="m 255.37764,340.17485 0,-271.893378"
       id="path11"
       sodipodi:nodetypes="cc" />
    <path
       style="fill:none;stroke:#000000;stroke-width:1.9389;stroke-dasharray:1.9389, 1.9389;stroke-dashoffset:0"
       d="M 370.74128,341.65387 189.8077,71.486018"
       id="path12" />
    <path
       style="fill:none;stroke:#000000;stroke-width:1.9389;stroke-dasharray:1.9389, 1.9389;stroke-dashoffset:0"
       d="M 137.05595,341.65387 335.73778,56.695807"
       id="path13" />
    <g
       id="g11-2-4-4"
       transform="translate(79.860276,-281.32164)"
       style="fill:#ffaaaa;stroke:#000000;stroke-width:1.00157;stroke-dasharray:1.00157, 1.00157;stroke-dashoffset:0">
      <path
         sodipodi:type="star"
         style="fill:#ffaaaa;stroke:#000000;stroke-width:1.00157;stroke-dasharray:1.00157, 1.00157;stroke-dashoffset:0"
         id="path1-6-5-3"
         inkscape:flatsided="false"
         sodipodi:sides="5"
         sodipodi:cx="146.91609"
         sodipodi:cy="166.63637"
         sodipodi:r1="16.999809"
         sodipodi:r2="8.4999046"
         sodipodi:arg1="-0.26179939"
         sodipodi:arg2="0.36651914"
         inkscape:rounded="0"
         inkscape:randomized="0"
         d="m 163.33665,162.23649 -8.48521,7.44597 1.32341,11.21115 -9.70361,-5.76899 -10.25347,4.72308 2.48804,-11.01139 -7.66041,-8.29213 11.24131,-1.03643 5.51908,-9.84789 4.45947,10.37084 z"
         inkscape:transform-center-x="-0.2749328"
         inkscape:transform-center-y="-1.3596359"
         transform="translate(107.47553,174.03148)" />
      <path
         sodipodi:type="star"
         style="fill:#ffaaaa;stroke:#000000;stroke-width:1.00157;stroke-dasharray:1.00157, 1.00157;stroke-dashoffset:0"
         id="path1-3-1-2-0"
         inkscape:flatsided="false"
         sodipodi:sides="5"
         sodipodi:cx="146.91609"
         sodipodi:cy="166.63637"
         sodipodi:r1="16.999809"
         sodipodi:r2="8.4999046"
         sodipodi:arg1="-0.26179939"
         sodipodi:arg2="0.36651914"
         inkscape:rounded="0"
         inkscape:randomized="0"
         d="m 163.33665,162.23649 -8.48521,7.44597 1.32341,11.21115 -9.70361,-5.76899 -10.25347,4.72308 2.48804,-11.01139 -7.66041,-8.29213 11.24131,-1.03643 5.51908,-9.84789 4.45947,10.37084 z"
         inkscape:transform-center-x="0.2648672"
         inkscape:transform-center-y="1.3693687"
         transform="rotate(-36.109922,467.5646,88.495443)" />
    </g>
    <text
       xml:space="preserve"
       style="font-size:13.3333px;font-family:'Latin Modern Mono Light';-inkscape-font-specification:'Latin Modern Mono Light, ';writing-mode:lr-tb;direction:ltr;fill:#000000;stroke:none;stroke-width:1.9389;stroke-dasharray:1.9389, 1.9389;stroke-dashoffset:0"
       x="265.2168"
       y="266.52667"
       id="text13"><tspan
         sodipodi:role="line"
         id="tspan13"
         x="265.2168"
         y="266.52667"
         style="font-style:italic">d</tspan></text>
    <path
       style="fill:none;stroke:#000000;stroke-width:1.9389;stroke-dasharray:none;stroke-dashoffset:0"
       d="m 255.13114,132.61889 c 9.52099,-1.86891 17.41239,-0.47865 21.6923,8.13461"
       id="path14"
       sodipodi:nodetypes="cc" />
    <text
       xml:space="preserve"
       style="font-size:13.3333px;font-family:'Latin Modern Mono Light';-inkscape-font-specification:'Latin Modern Mono Light, ';writing-mode:lr-tb;direction:ltr;fill:none;stroke:#000000;stroke-width:1.9389;stroke-dasharray:none;stroke-dashoffset:0"
       x="270.16785"
       y="125.22379"
       id="text14"><tspan
         sodipodi:role="line"
         id="tspan14"
         x="270.16785"
         y="125.22379"
         style="font-style:italic;fill:#000000;stroke:none">p</tspan></text>
    <path
       style="fill:none;stroke:#000000;stroke-width:1.56094;stroke-dasharray:none;stroke-dashoffset:0;marker-start:url(#ConcaveTriangle);marker-end:url(#DartArrow)"
       d="m 166.6387,343.86683 60.8322,0"
       id="path15"
       sodipodi:nodetypes="cc" />
    <text
       xml:space="preserve"
       style="font-size:13.3333px;font-family:'Latin Modern Mono Light';-inkscape-font-specification:'Latin Modern Mono Light, ';writing-mode:lr-tb;direction:ltr;fill:none;stroke:#000000;stroke-width:1.56094;stroke-dasharray:none;stroke-dashoffset:0"
       x="183.3719"
       y="341.42654"
       id="text16"><tspan
         sodipodi:role="line"
         id="tspan16"
         x="183.3719"
         y="341.42654"
         style="fill:#000000;stroke:none">1 AU</tspan></text>
  </g>
</svg>
